<?xml version="1.0" encoding="UTF-8"?>
<svg xmlns="http://www.w3.org/2000/svg" xmlns:xlink="http://www.w3.org/1999/xlink" width="199pt" height="199pt" viewBox="0 0 199 199" version="1.1">
<defs>
<linearGradient id="linear0" gradientUnits="userSpaceOnUse" x1="0.710046" y1="1" x2="0" y2="1" gradientTransform="matrix(14.109375,0,0,9,63.304687,65.171875)">
<stop offset="0" style="stop-color:rgb(22.352941%,29.019608%,62.352941%);stop-opacity:1;"/>
<stop offset="1" style="stop-color:rgb(38.039216%,46.27451%,72.54902%);stop-opacity:1;"/>
</linearGradient>
<linearGradient id="linear1" gradientUnits="userSpaceOnUse" x1="0.710046" y1="1" x2="0" y2="1" gradientTransform="matrix(12.886719,0,0,4.566406,107.769531,63.144531)">
<stop offset="0" style="stop-color:rgb(22.352941%,29.019608%,62.352941%);stop-opacity:1;"/>
<stop offset="1" style="stop-color:rgb(38.039216%,46.27451%,72.54902%);stop-opacity:1;"/>
</linearGradient>
</defs>
<g id="surface1">
<path style=" stroke:none;fill-rule:nonzero;fill:rgb(87.058824%,34.509804%,20%);fill-opacity:1;" d="M 99.613281 14.703125 C 146.253906 14.703125 184.066406 52.664062 184.066406 99.488281 C 184.066406 146.3125 146.253906 184.269531 99.613281 184.269531 C 52.972656 184.269531 15.160156 146.3125 15.160156 99.488281 C 15.160156 52.664062 52.972656 14.703125 99.613281 14.703125 "/>
<path style=" stroke:none;fill-rule:nonzero;fill:rgb(87.058824%,34.509804%,20%);fill-opacity:1;" d="M 99.609375 198.9375 C 154.324219 198.9375 198.675781 154.414062 198.675781 99.484375 C 198.675781 44.558594 154.324219 0.03125 99.609375 0.03125 C 44.898438 0.03125 0.546875 44.558594 0.546875 99.484375 C 0.546875 154.414062 44.898438 198.9375 99.609375 198.9375 Z M 99.609375 190.652344 C 49.457031 190.652344 8.800781 149.835938 8.800781 99.484375 C 8.800781 49.136719 49.457031 8.320312 99.609375 8.320312 C 149.765625 8.320312 190.421875 49.136719 190.421875 99.484375 C 190.421875 149.835938 149.765625 190.652344 99.609375 190.652344 Z M 99.609375 190.652344 "/>
<path style=" stroke:none;fill-rule:nonzero;fill:rgb(83.529412%,84.313725%,84.705882%);fill-opacity:1;" d="M 58.472656 42.242188 C 58.453125 40.816406 59.484375 40.019531 60.855469 39.457031 C 60.230469 39.5625 59.628906 39.71875 59.085938 39.964844 C 57.660156 40.613281 56.589844 43.074219 56.601562 44.238281 C 63.535156 43.535156 73.792969 44.023438 81.292969 46.269531 C 81.847656 46.191406 82.402344 46.113281 82.964844 46.050781 C 75.480469 42.714844 66.589844 41.425781 58.472656 42.242188 "/>
<path style=" stroke:none;fill-rule:nonzero;fill:rgb(83.529412%,84.313725%,84.705882%);fill-opacity:1;" d="M 59.894531 33.675781 C 60.050781 33.644531 60.207031 33.625 60.363281 33.601562 C 58.867188 33.785156 58.078125 34.324219 56.957031 34.507812 C 58.175781 34.617188 62.796875 36.78125 65.699219 37.972656 C 66.109375 37.816406 66.476562 37.644531 66.773438 37.441406 C 65.269531 37.21875 61.527344 33.824219 59.894531 33.675781 "/>
<path style=" stroke:none;fill-rule:nonzero;fill:rgb(83.529412%,84.313725%,84.705882%);fill-opacity:1;" d="M 67.105469 50.535156 C 66.6875 50.695312 66.292969 50.863281 65.953125 51.042969 C 54.644531 57.023438 49.652344 70.992188 52.628906 87.730469 C 55.34375 102.960938 66.480469 155.003906 71.578125 179.480469 C 73.066406 180.007812 74.574219 180.496094 76.097656 180.9375 C 71.558594 158.898438 59.164062 101.148438 56.273438 84.929688 C 53.34375 68.429688 56.195312 56.589844 67.105469 50.535156 "/>
<path style=" stroke:none;fill-rule:nonzero;fill:rgb(100%,100%,100%);fill-opacity:1;" d="M 112.859375 170.609375 C 112.671875 170.734375 112.449219 170.851562 112.210938 170.964844 C 112.035156 171.648438 111.769531 172.164062 111.378906 172.425781 C 109.042969 173.980469 102.445312 174.765625 98.964844 173.980469 C 98.363281 173.847656 97.910156 173.628906 97.554688 173.324219 C 91.609375 176.636719 83.058594 181.050781 81.324219 180.054688 C 78.609375 178.496094 78.214844 157.851562 78.609375 152.789062 C 78.898438 148.964844 92.277344 155.15625 98.785156 158.40625 C 100.222656 157.058594 103.75 156.152344 106.871094 155.847656 C 102.15625 144.328125 98.675781 131.152344 100.808594 121.808594 C 97.863281 119.746094 93.957031 114.96875 94.769531 109.976562 C 95.398438 106.179688 105.171875 98.996094 112.09375 98.5625 C 119.027344 98.125 121.191406 98.222656 126.96875 96.832031 C 127.257812 96.765625 127.578125 96.6875 127.910156 96.605469 C 131.464844 84.054688 122.933594 62.210938 113.417969 52.65625 C 110.316406 49.539062 105.546875 47.578125 100.171875 46.546875 C 98.105469 43.699219 94.769531 40.972656 90.050781 38.453125 C 81.285156 33.78125 70.457031 31.878906 60.363281 33.601562 C 60.207031 33.625 60.050781 33.644531 59.894531 33.675781 C 61.527344 33.824219 65.269531 37.21875 66.773438 37.441406 C 66.476562 37.644531 66.109375 37.816406 65.699219 37.972656 C 64.289062 38.511719 62.367188 38.839844 60.855469 39.457031 C 59.484375 40.019531 58.453125 40.816406 58.472656 42.242188 C 66.589844 41.425781 75.480469 42.714844 82.964844 46.050781 C 82.402344 46.113281 81.847656 46.191406 81.292969 46.269531 C 75.988281 47.019531 71.113281 48.398438 67.589844 50.265625 C 67.425781 50.351562 67.265625 50.445312 67.105469 50.535156 C 56.195312 56.589844 53.34375 68.429688 56.273438 84.929688 C 59.164062 101.148438 71.640625 159.792969 76.179688 181.832031 C 83.644531 184 90.625 185.734375 98.785156 185.734375 C 105.710938 185.734375 114.042969 184.191406 120.488281 182.613281 C 118.226562 178.230469 115.3125 173.386719 113.519531 169.914062 C 113.28125 170.199219 113.09375 170.449219 112.859375 170.609375 Z M 117.421875 87.449219 C 114.464844 87.449219 112.054688 85.035156 112.054688 82.046875 C 112.054688 79.078125 114.464844 76.660156 117.421875 76.660156 C 120.398438 76.660156 122.800781 79.078125 122.800781 82.046875 C 122.800781 85.035156 120.398438 87.449219 117.421875 87.449219 Z M 120.65625 67.152344 C 120.65625 67.152344 117.269531 65.210938 114.644531 65.242188 C 109.242188 65.3125 107.769531 67.710938 107.769531 67.710938 C 107.769531 67.710938 108.675781 62 115.585938 63.144531 C 119.328125 63.769531 120.65625 67.152344 120.65625 67.152344 Z M 63.714844 74.171875 C 63.714844 74.171875 61.28125 68.730469 67.761719 66.066406 C 74.253906 63.398438 77.414062 67.582031 77.414062 67.582031 C 77.414062 67.582031 72.699219 65.441406 68.117188 68.332031 C 63.542969 71.222656 63.714844 74.171875 63.714844 74.171875 Z M 69.378906 85.769531 C 69.378906 82.300781 72.175781 79.492188 75.636719 79.492188 C 79.085938 79.492188 81.886719 82.300781 81.886719 85.769531 C 81.886719 89.242188 79.085938 92.046875 75.636719 92.046875 C 72.175781 92.046875 69.378906 89.242188 69.378906 85.769531 Z M 69.378906 85.769531 "/>
<path style=" stroke:none;fill-rule:nonzero;fill:rgb(17.647059%,30.980392%,55.686275%);fill-opacity:1;" d="M 81.886719 85.769531 C 81.886719 82.300781 79.085938 79.492188 75.636719 79.492188 C 72.175781 79.492188 69.378906 82.300781 69.378906 85.769531 C 69.378906 89.242188 72.175781 92.046875 75.636719 92.046875 C 79.085938 92.046875 81.886719 89.242188 81.886719 85.769531 Z M 78.40625 85.308594 C 77.515625 85.3125 76.785156 84.578125 76.785156 83.679688 C 76.785156 82.777344 77.515625 82.050781 78.40625 82.050781 C 79.300781 82.050781 80.027344 82.777344 80.027344 83.679688 C 80.027344 84.578125 79.300781 85.308594 78.40625 85.308594 Z M 78.40625 85.308594 "/>
<path style=" stroke:none;fill-rule:nonzero;fill:rgb(100%,100%,100%);fill-opacity:1;" d="M 78.40625 82.050781 C 77.515625 82.050781 76.785156 82.777344 76.785156 83.679688 C 76.785156 84.578125 77.515625 85.3125 78.40625 85.308594 C 79.300781 85.308594 80.027344 84.578125 80.027344 83.679688 C 80.027344 82.777344 79.300781 82.050781 78.40625 82.050781 "/>
<path style=" stroke:none;fill-rule:nonzero;fill:rgb(17.647059%,30.980392%,55.686275%);fill-opacity:1;" d="M 117.421875 76.660156 C 114.464844 76.660156 112.054688 79.078125 112.054688 82.046875 C 112.054688 85.035156 114.464844 87.449219 117.421875 87.449219 C 120.398438 87.449219 122.800781 85.035156 122.800781 82.046875 C 122.800781 79.078125 120.398438 76.660156 117.421875 76.660156 Z M 119.808594 81.652344 C 119.050781 81.652344 118.421875 81.03125 118.421875 80.253906 C 118.421875 79.488281 119.050781 78.859375 119.808594 78.859375 C 120.597656 78.859375 121.203125 79.488281 121.203125 80.253906 C 121.203125 81.03125 120.597656 81.652344 119.808594 81.652344 Z M 119.808594 81.652344 "/>
<path style=" stroke:none;fill-rule:nonzero;fill:rgb(100%,100%,100%);fill-opacity:1;" d="M 119.808594 78.859375 C 119.050781 78.859375 118.421875 79.488281 118.421875 80.253906 C 118.421875 81.03125 119.050781 81.652344 119.808594 81.652344 C 120.597656 81.652344 121.203125 81.03125 121.203125 80.253906 C 121.203125 79.488281 120.597656 78.859375 119.808594 78.859375 "/>
<path style=" stroke:none;fill-rule:nonzero;fill:url(#linear0);" d="M 77.414062 67.582031 C 77.414062 67.582031 74.253906 63.398438 67.761719 66.066406 C 61.28125 68.730469 63.714844 74.171875 63.714844 74.171875 C 63.714844 74.171875 63.542969 71.222656 68.117188 68.332031 C 72.699219 65.441406 77.414062 67.582031 77.414062 67.582031 "/>
<path style=" stroke:none;fill-rule:nonzero;fill:url(#linear1);" d="M 115.585938 63.144531 C 108.675781 62 107.769531 67.710938 107.769531 67.710938 C 107.769531 67.710938 109.242188 65.3125 114.644531 65.242188 C 117.269531 65.210938 120.65625 67.152344 120.65625 67.152344 C 120.65625 67.152344 119.328125 63.769531 115.585938 63.144531 "/>
<path style=" stroke:none;fill-rule:nonzero;fill:rgb(99.215686%,82.352941%,3.529412%);fill-opacity:1;" d="M 112.09375 98.5625 C 105.171875 98.996094 95.398438 106.179688 94.769531 109.976562 C 93.957031 114.96875 97.863281 119.746094 100.808594 121.808594 C 100.816406 121.8125 100.824219 121.820312 100.832031 121.828125 C 103.777344 123.882812 123.390625 130.523438 133.121094 130.339844 C 142.859375 130.152344 158.859375 124.160156 157.101562 119.363281 C 155.351562 114.5625 139.464844 123.597656 122.894531 122.054688 C 110.621094 120.910156 108.453125 115.390625 111.171875 111.359375 C 114.589844 106.292969 120.816406 112.320312 131.085938 109.238281 C 141.367188 106.160156 155.75 100.652344 161.085938 97.65625 C 173.425781 90.75 155.925781 87.886719 151.789062 89.800781 C 147.871094 91.621094 134.234375 95.074219 127.910156 96.605469 C 127.578125 96.6875 127.257812 96.765625 126.96875 96.832031 C 121.191406 98.222656 119.027344 98.125 112.09375 98.5625 "/>
<path style=" stroke:none;fill-rule:nonzero;fill:rgb(39.607843%,73.72549%,27.45098%);fill-opacity:1;" d="M 96.636719 161.519531 C 96.636719 160.800781 97.210938 160.164062 98.125 159.621094 C 98.152344 159.183594 98.386719 158.777344 98.785156 158.40625 C 92.277344 155.15625 78.898438 148.964844 78.609375 152.789062 C 78.214844 157.851562 78.609375 178.496094 81.324219 180.054688 C 83.058594 181.050781 91.609375 176.636719 97.554688 173.324219 C 95.839844 171.855469 96.636719 168.292969 96.636719 161.519531 "/>
<path style=" stroke:none;fill-rule:nonzero;fill:rgb(39.607843%,73.72549%,27.45098%);fill-opacity:1;" d="M 113.433594 169.878906 C 113.460938 169.890625 113.492188 169.902344 113.519531 169.914062 C 118.847656 171.976562 129.453125 175.863281 131.757812 175.015625 C 134.863281 173.824219 134.085938 148.910156 130.601562 148.117188 C 127.808594 147.492188 117.117188 155.054688 112.914062 158.132812 C 113.65625 161.289062 114.558594 167.535156 113.433594 169.878906 "/>
<path style=" stroke:none;fill-rule:nonzero;fill:rgb(26.27451%,63.529412%,26.666667%);fill-opacity:1;" d="M 100.445312 172.164062 C 96.949219 171.386719 98.117188 167.875 98.117188 159.699219 C 98.117188 159.671875 98.125 159.648438 98.125 159.621094 C 97.210938 160.164062 96.636719 160.800781 96.636719 161.519531 C 96.636719 168.292969 95.839844 171.855469 97.554688 173.324219 C 97.910156 173.628906 98.363281 173.847656 98.964844 173.980469 C 102.445312 174.765625 109.042969 173.980469 111.378906 172.425781 C 111.769531 172.164062 112.035156 171.648438 112.210938 170.964844 C 109.480469 172.277344 103.640625 172.894531 100.445312 172.164062 "/>
<path style=" stroke:none;fill-rule:nonzero;fill:rgb(39.607843%,73.72549%,27.45098%);fill-opacity:1;" d="M 98.785156 158.40625 C 98.386719 158.777344 98.152344 159.183594 98.125 159.621094 C 98.125 159.648438 98.117188 159.671875 98.117188 159.699219 C 98.117188 167.875 96.949219 171.386719 100.445312 172.164062 C 103.640625 172.894531 109.480469 172.277344 112.210938 170.964844 C 112.449219 170.851562 112.671875 170.734375 112.859375 170.609375 C 113.09375 170.449219 113.28125 170.199219 113.433594 169.878906 C 114.558594 167.535156 113.65625 161.289062 112.914062 158.132812 C 112.75 157.441406 112.59375 156.894531 112.46875 156.574219 C 112.148438 155.777344 109.675781 155.570312 106.871094 155.847656 C 103.75 156.152344 100.222656 157.058594 98.785156 158.40625 "/>
</g>
</svg>
